<svg width="30" height="30" viewBox="0 0 30 30" fill="none" xmlns="http://www.w3.org/2000/svg">
<path d="M26.25 0H22.5V1.875H7.5V0H3.75V1.875H0V7.5V9.375V28.125V30H1.875H30V28.125V9.375V7.5V1.875H26.25V0ZM28.125 9.375V28.125H1.875V9.375H28.125Z" fill="#CDC4C4"/>
<path d="M26.25 11.25H20.625V16.875H26.25V11.25Z" fill="#CDC4C4"/>
<path d="M26.25 18.75H20.625V24.375H26.25V18.75Z" fill="#CDC4C4"/>
<path d="M18.75 18.75H13.125V24.375H18.75V18.75Z" fill="#CDC4C4"/>
<path d="M11.25 18.75H5.625V24.375H11.25V18.75Z" fill="#CDC4C4"/>
<path d="M18.75 11.25H13.125V16.875H18.75V11.25Z" fill="#CDC4C4"/>
<path d="M11.25 11.25H5.625V16.875H11.25V11.25Z" fill="#CDC4C4"/>
</svg>
