<svg width="23" height="23" viewBox="0 0 23 23" fill="none" xmlns="http://www.w3.org/2000/svg">
<path d="M2.55556 3.28577C1.14412 3.28577 0 4.27148 0 5.47624V20.8096C0 22.0143 1.14412 23.0001 2.55556 23.0001H10.2222H12.7778H20.4444C21.8564 23.0001 23 22.0143 23 20.8096V5.47624C23 4.27148 21.8564 3.28577 20.4444 3.28577H12.7778H10.2222H2.55556Z" fill="#ADB7BD"/>
<path d="M2.55556 2.19043C1.14412 2.19043 0 3.17111 0 4.38091V19.7142C0 20.9245 1.14412 21.9047 2.55556 21.9047H10.2222H12.7778H20.4444C21.8564 21.9047 23 20.9245 23 19.7142V4.38091C23 3.17111 21.8564 2.19043 20.4444 2.19043H12.7778H10.2222H2.55556Z" fill="#797E87"/>
<path d="M2.55556 2.19043C1.14412 2.19043 0 3.17614 0 4.38091V7.66662H23V4.38091C23 3.17614 21.8564 2.19043 20.4444 2.19043H12.7778H10.2222H2.55556Z" fill="#797E87"/>
<path d="M5.75033 4.92862C5.75033 5.14437 5.70075 5.358 5.60443 5.55732C5.50811 5.75664 5.36693 5.93775 5.18895 6.0903C5.01097 6.24285 4.79968 6.36386 4.56714 6.44643C4.33459 6.52899 4.08536 6.57148 3.83366 6.57148C3.58196 6.57148 3.33272 6.52899 3.10018 6.44643C2.86764 6.36386 2.65635 6.24285 2.47837 6.0903C2.30039 5.93775 2.15921 5.75664 2.06289 5.55732C1.96657 5.358 1.91699 5.14437 1.91699 4.92862C1.91699 4.71288 1.96657 4.49925 2.06289 4.29993C2.15921 4.10061 2.30039 3.9195 2.47837 3.76695C2.65635 3.61439 2.86764 3.49338 3.10018 3.41082C3.33272 3.32826 3.58196 3.28577 3.83366 3.28577C4.08536 3.28577 4.33459 3.32826 4.56714 3.41082C4.79968 3.49338 5.01097 3.61439 5.18895 3.76695C5.36693 3.9195 5.50811 4.10061 5.60443 4.29993C5.70075 4.49925 5.75033 4.71288 5.75033 4.92862Z" fill="#28303F"/>
<path d="M3.83338 0C3.12766 0 2.5556 0.490338 2.5556 1.09524V4.38095C2.5556 4.98585 3.12766 5.47619 3.83338 5.47619C4.5391 5.47619 5.11116 4.98585 5.11116 4.38095V1.09524C5.11116 0.490338 4.5391 0 3.83338 0Z" fill="#ADB7BD"/>
<path d="M21.0833 4.92862C21.0833 5.14437 21.0338 5.358 20.9374 5.55732C20.8411 5.75664 20.6999 5.93775 20.522 6.0903C20.344 6.24285 20.1327 6.36386 19.9001 6.44643C19.6676 6.52899 19.4184 6.57148 19.1667 6.57148C18.915 6.57148 18.6657 6.52899 18.4332 6.44643C18.2006 6.36386 17.9894 6.24285 17.8114 6.0903C17.6334 5.93775 17.4922 5.75664 17.3959 5.55732C17.2996 5.358 17.25 5.14437 17.25 4.92862C17.25 4.71288 17.2996 4.49925 17.3959 4.29993C17.4922 4.10061 17.6334 3.9195 17.8114 3.76695C17.9894 3.61439 18.2006 3.49338 18.4332 3.41082C18.6657 3.32826 18.915 3.28577 19.1667 3.28577C19.4184 3.28577 19.6676 3.32826 19.9001 3.41082C20.1327 3.49338 20.344 3.61439 20.522 3.76695C20.6999 3.9195 20.8411 4.10061 20.9374 4.29993C21.0338 4.49925 21.0833 4.71288 21.0833 4.92862Z" fill="#28303F"/>
<path d="M19.1669 0C18.4616 0 17.8892 0.438095 17.8892 1.09524V4.38095C17.8892 4.92857 18.4616 5.47619 19.1669 5.47619C19.8723 5.47619 20.4447 4.92857 20.4447 4.38095V1.09524C20.4447 0.438095 19.8723 0 19.1669 0Z" fill="#ADB7BD"/>
<path d="M2.5556 10.9524V13.1429H5.11116V10.9524H2.5556ZM6.38894 10.9524V13.1429H8.94449V10.9524H6.38894ZM10.2223 10.9524V13.1429H12.7778V10.9524H10.2223ZM14.0556 10.9524V13.1429H16.6112V10.9524H14.0556ZM17.8889 10.9524V13.1429H20.4445V10.9524H17.8889Z" fill="#ADB7BD"/>
<path d="M2.5556 14.238V16.4285H5.11116V14.238H2.5556ZM6.38894 14.238V16.4285H8.94449V14.238H6.38894ZM10.2223 14.238V16.4285H12.7778V14.238H10.2223ZM14.0556 14.238V16.4285H16.6112V14.238H14.0556ZM17.8889 14.238V16.4285H20.4445V14.238H17.8889Z" fill="#ADB7BD"/>
<path d="M2.5556 17.5238V19.7143H5.11116V17.5238H2.5556ZM6.38894 17.5238V19.7143H8.94449V17.5238H6.38894ZM10.2223 17.5238V19.7143H12.7778V17.5238H10.2223ZM14.0556 17.5238V19.7143H16.6112V17.5238H14.0556ZM17.8889 17.5238V19.7143H20.4445V17.5238H17.8889Z" fill="#ADB7BD"/>
<path d="M23 7.66663H0V8.76186H23V7.66663Z" fill="#28303F"/>
</svg>
