<svg width="36" height="36" viewBox="0 0 36 36" fill="none" xmlns="http://www.w3.org/2000/svg">
<g clip-path="url(#clip0)">
<path d="M35.6206 24.665L32.2096 21.2537L25.1534 28.31C23.8938 29.5696 22.3129 30.3908 20.5957 30.6981L25.0916 35.194C25.5033 35.606 26.1713 35.606 26.583 35.194L35.6206 26.1567C36.0326 25.7447 36.0326 25.0767 35.6206 24.665Z" fill="#8E8E8E"/>
<path d="M30.8202 19.6605C32.0092 18.4718 32.0095 16.5373 30.8219 15.3478C30.8205 15.3464 30.8191 15.345 30.8178 15.3437C30.5239 15.0501 30.1806 14.8237 29.8068 14.6724C30.1308 13.8526 30.1992 12.4661 29.1256 11.3922C29.1229 11.3894 29.1201 11.3864 29.1171 11.3837C28.8246 11.0931 28.4834 10.8689 28.1121 10.7184C28.4362 9.89912 28.5049 8.51237 27.4318 7.43901C27.431 7.43818 27.4304 7.43763 27.4299 7.43708C27.1357 7.14293 26.7921 6.91606 26.4177 6.76472C26.7418 5.94487 26.8102 4.55811 25.7366 3.4842C25.7363 3.4842 25.7363 3.48393 25.736 3.48393C25.7358 3.48365 25.7355 3.48338 25.7352 3.4831C24.5457 2.29356 22.6104 2.29356 21.4209 3.4831L19.4211 5.48261L20.4436 6.50517C22.1476 8.20915 22.1476 10.9816 20.4439 12.6855C19.8704 13.2587 19.1659 13.6526 18.398 13.8402C18.2142 14.5889 17.8308 15.2986 17.2466 15.8826C16.674 16.4552 15.9706 16.8488 15.2034 17.0367C15.0158 17.8035 14.622 18.5072 14.0496 19.0796C13.4769 19.6522 12.7735 20.0458 12.0064 20.2337C11.8188 21.0005 11.425 21.7042 10.8526 22.2769C10.0272 23.102 8.92969 23.5568 7.76239 23.5568C6.5951 23.5568 5.49756 23.1022 4.67221 22.2766L3.64966 21.2541L0.238678 24.6653C-0.173309 25.0773 -0.173309 25.745 0.238678 26.157L9.27604 35.1943C9.68803 35.6063 10.3557 35.6061 10.7677 35.1943L17.237 28.7253H19.0596C20.7982 28.7253 22.4327 28.048 23.6621 26.8189L30.8202 19.6605Z" fill="#8E8E8E"/>
<path d="M6.16359 20.785C7.04634 21.6681 8.47786 21.6681 9.36061 20.785C10.2436 19.9023 10.2436 18.471 9.36061 17.588C10.2436 18.471 11.6749 18.471 12.5579 17.588C13.4407 16.7053 13.4407 15.2737 12.5579 14.391C13.4407 15.2737 14.8722 15.2737 15.7549 14.391C16.6377 13.5082 16.6377 12.0767 15.7549 11.194C16.6377 12.0767 18.0692 12.0767 18.952 11.194C19.835 10.3109 19.835 8.87969 18.952 7.99666L14.4443 3.48897C13.5615 2.60622 12.13 2.60622 11.2472 3.48897C10.3645 4.37172 10.3645 5.80324 11.2472 6.68599L11.8119 7.25097C10.9292 6.36794 9.49767 6.36794 8.61492 7.25097C7.73216 8.13372 7.73216 9.56524 8.61492 10.448L9.74459 11.5777C8.86184 10.6949 7.43032 10.6949 6.54756 11.5777C5.66454 12.4604 5.66454 13.8919 6.54756 14.7747L7.67723 15.9046C6.79421 15.0216 5.36296 15.0216 4.47994 15.9046C3.59718 16.7874 3.59718 18.2186 4.47994 19.1017L6.16359 20.785Z" fill="#8E8E8E"/>
<path d="M19.9295 1.99126C20.0855 1.83525 20.2506 1.69188 20.4223 1.55867L19.8054 0.94179C19.4846 0.620714 18.9938 0.541338 18.5881 0.744036L15.9849 2.04564L17.93 3.99105L19.9295 1.99126Z" fill="#8E8E8E"/>
</g>
<defs>
<clipPath id="clip0">
<rect width="36" height="36" fill="#8E8E8E"/>
</clipPath>
</defs>
</svg>
