<svg width="30" height="30" viewBox="0 0 30 30" fill="none" xmlns="http://www.w3.org/2000/svg">
<path d="M11.25 0H1.875C0.839062 0 0 0.839062 0 1.875V11.25C0 12.285 0.839062 13.125 1.875 13.125H11.25C12.2859 13.125 13.125 12.285 13.125 11.25V1.875C13.125 0.839062 12.2859 0 11.25 0ZM11.25 11.25H1.875V1.875H11.25V11.25Z" fill="#CDC4C4"/>
<path d="M28.125 0H18.75C17.7141 0 16.875 0.839062 16.875 1.875V11.25C16.875 12.285 17.7141 13.125 18.75 13.125H28.125C29.16 13.125 30 12.285 30 11.25V1.875C30 0.839062 29.16 0 28.125 0ZM28.125 11.25H18.75V1.875H28.125V11.25Z" fill="#CDC4C4"/>
<path d="M28.125 16.875H18.75C17.7141 16.875 16.875 17.715 16.875 18.75V28.125C16.875 29.1609 17.7141 30 18.75 30H28.125C29.16 30 30 29.1609 30 28.125V18.75C30 17.7141 29.16 16.875 28.125 16.875ZM28.125 28.125H18.75V18.75H28.125V28.125Z" fill="#CDC4C4"/>
<path d="M11.25 16.875H1.875C0.839062 16.875 0 17.715 0 18.75V28.125C0 29.1609 0.839062 30 1.875 30H11.25C12.2859 30 13.125 29.1609 13.125 28.125V18.75C13.125 17.7141 12.2859 16.875 11.25 16.875ZM11.25 28.125H1.875V18.75H11.25V28.125Z" fill="#CDC4C4"/>
</svg>
