<svg width="23" height="23" viewBox="0 0 23 23" fill="none" xmlns="http://www.w3.org/2000/svg">
<path d="M11.4999 12.765C12.2014 12.765 12.7649 12.1958 12.7649 11.5C12.7649 10.8042 12.2014 10.235 11.4999 10.235C10.8041 10.235 10.2349 10.8042 10.2349 11.5C10.2349 12.1958 10.8042 12.765 11.4999 12.765Z" fill="#797E87"/>
<path d="M11.5 0C5.14628 0 0 5.14628 0 11.5C0 17.848 5.14628 23 11.5 23C17.8537 23 23 17.848 23 11.5C23.0001 5.14628 17.8538 0 11.5 0ZM14.0185 14.0185L4.59999 18.4L8.9815 8.9815L18.4 4.59999L14.0185 14.0185Z" fill="#797E87"/>
</svg>
